<?xml version="1.0" encoding="utf-8"?>
<!-- Generator: Adobe Illustrator 24.0.1, SVG Export Plug-In . SVG Version: 6.00 Build 0)  -->
<svg version="1.1" id="Layer_1" xmlns="http://www.w3.org/2000/svg" xmlns:xlink="http://www.w3.org/1999/xlink" x="0px" y="0px"
	 viewBox="0 0 1024 100" style="enable-background:new 0 0 1024 100;" xml:space="preserve">
<path d="M1024.06189,31.5c-64.00037,0-64.00037-24-128.00073-24c-63.99945,0-63.99945,24-127.9989,24
	c-63.99866,0-63.99866-24-127.99738-24c-63.99951,0-63.99951,24-127.99902,24c-63.99683,0-63.99683-24-127.99365-24
	s-63.99683,24-127.99365,24c-63.99951,0-63.99951-24-127.99896-24c-63.99872,0-63.99872,24-127.99744,24
	c-0.00336,0-0.00659-0.00006-0.00995-0.00006V100h1023.99994V31.49994C1024.06873,31.49994,1024.06531,31.5,1024.06189,31.5z" fill="#3396F3"/>
</svg>
